<?xml version="1.0" encoding="UTF-8" standalone="no"?>
<!-- Created with Inkscape (http://www.inkscape.org/) -->

<svg width="512" height="512" viewBox="0 0 512 512" id="svg4881" version="1.1" inkscape:version="1.1 (ce6663b3b7, 2021-05-25)" sodipodi:docname="snap-logicat.svg" xmlns:inkscape="http://www.inkscape.org/namespaces/inkscape" xmlns:sodipodi="http://sodipodi.sourceforge.net/DTD/sodipodi-0.dtd" xmlns:xlink="http://www.w3.org/1999/xlink" xmlns="http://www.w3.org/2000/svg" xmlns:svg="http://www.w3.org/2000/svg" xmlns:rdf="http://www.w3.org/1999/02/22-rdf-syntax-ns#" xmlns:cc="http://creativecommons.org/ns#" xmlns:dc="http://purl.org/dc/elements/1.1/">
  <defs id="defs4883">
    <linearGradient inkscape:collect="always" xlink:href="#linearGradient4384" id="linearGradient4394" x1="141.70885" y1="716.21887" x2="361.98486" y2="1034.2629" gradientUnits="userSpaceOnUse" gradientTransform="matrix(1.0499673,0,0,1.0499673,-0.25828205,229.10522)" />
    <linearGradient inkscape:collect="always" id="linearGradient4384">
      <stop style="stop-color:#f9f9f9;stop-opacity:1" offset="0" id="stop4386" />
      <stop style="stop-color:#b3b3b3;stop-opacity:0.07843138" offset="1" id="stop4388" />
    </linearGradient>
    <linearGradient inkscape:collect="always" xlink:href="#linearGradient5456" id="linearGradient5462" x1="24.137665" y1="848.4624" x2="211.52217" y2="1011.7092" gradientUnits="userSpaceOnUse" gradientTransform="matrix(2.258222,0,0,2.2517383,-3.9188275,-1033.1148)" />
    <linearGradient inkscape:collect="always" id="linearGradient5456">
      <stop style="stop-color:#fc4a1a;stop-opacity:1" offset="0" id="stop5458" />
      <stop style="stop-color:#f7b733;stop-opacity:1" offset="1" id="stop5460" />
    </linearGradient>
  </defs>
  <sodipodi:namedview id="base" pagecolor="#ffffff" bordercolor="#666666" borderopacity="1.0" inkscape:pageopacity="0.0" inkscape:pageshadow="2" inkscape:zoom="0.23266101" inkscape:cx="401.87223" inkscape:cy="578.09428" inkscape:document-units="px" inkscape:current-layer="layer1" showgrid="false" units="px" inkscape:window-width="1366" inkscape:window-height="704" inkscape:window-x="0" inkscape:window-y="27" inkscape:window-maximized="1" inkscape:pagecheckerboard="0" width="512px" inkscape:snap-page="true" />
  <metadata id="metadata4886">
    <rdf:RDF>
      <cc:Work rdf:about="">
        <dc:format>image/svg+xml</dc:format>
        <dc:type rdf:resource="http://purl.org/dc/dcmitype/StillImage" />
      </cc:Work>
    </rdf:RDF>
  </metadata>
  <g inkscape:label="Layer 1" inkscape:groupmode="layer" id="layer1" transform="translate(0,-822.36216)">
    <rect style="color:#000000;clip-rule:nonzero;display:inline;overflow:visible;visibility:visible;opacity:1;isolation:auto;mix-blend-mode:normal;color-interpolation:sRGB;color-interpolation-filters:linearRGB;solid-color:#000000;solid-opacity:1;fill:url(#linearGradient5462);fill-opacity:1;fill-rule:nonzero;stroke:#ff0000;stroke-width:1.35647;stroke-linecap:round;stroke-linejoin:round;stroke-miterlimit:4;stroke-dasharray:none;stroke-dashoffset:0;stroke-opacity:0.0784314;color-rendering:auto;image-rendering:auto;shape-rendering:auto;text-rendering:auto;enable-background:accumulate" id="rect4206" width="512" height="512" x="0" y="822.36218" ry="0" />
    <g id="g4201" transform="matrix(1.9105839,0,0,1.9105766,37.206238,-707.47743)" style="stroke-width:0.498492">
      <g id="g5478" transform="translate(-5.9047514,4.9651851)" style="stroke-width:0.498492">
        <path style="fill:url(#linearGradient4394);fill-opacity:1;fill-rule:evenodd;stroke:none;stroke-width:2.25784;stroke-linecap:butt;stroke-linejoin:miter;stroke-miterlimit:4;stroke-dasharray:none;stroke-opacity:1" d="m 136.39623,890.56861 c -19.23467,-1.67195 -54.080284,-35.68197 -54.080284,-35.68197 0,0 -4.181481,-3.90256 -3.06636,4.73959 4.170867,17.97461 4.065356,17.4607 11.171091,33.80293 4.931086,4.95673 28.149823,6.35102 45.975553,-2.86055 z" id="path4637-8-0-7-9" inkscape:connector-curvature="0" sodipodi:nodetypes="ccccc" />
        <path style="color:#000000;clip-rule:nonzero;display:inline;overflow:visible;visibility:visible;opacity:0.71;isolation:auto;mix-blend-mode:normal;color-interpolation:sRGB;color-interpolation-filters:linearRGB;solid-color:#000000;solid-opacity:1;fill:#ff0000;fill-opacity:0;fill-rule:nonzero;stroke:#ffffff;stroke-width:2.617;stroke-linecap:round;stroke-linejoin:round;stroke-miterlimit:4;stroke-dasharray:none;stroke-dashoffset:0;stroke-opacity:1;color-rendering:auto;image-rendering:auto;shape-rendering:auto;text-rendering:auto;enable-background:accumulate" d="m 220.32397,949.79496 c -1.09254,-1.64361 -2.195,-3.28038 -3.35879,-4.88195 -1.45028,-1.99584 -2.95454,-3.96001 -4.50848,-5.89375 -1.55396,-1.93374 -3.15768,-3.83795 -4.80752,-5.71312 -1.64985,-1.87517 -3.34537,-3.72211 -5.08334,-5.54225 -3.47596,-3.64025 -7.12076,-7.17334 -10.90264,-10.6146 -3.7819,-3.44126 -7.70079,-6.79002 -11.72648,-10.0605 -4.02568,-3.27048 -8.15866,-6.46268 -12.366,-9.59061 -4.20735,-3.12793 -8.48949,-6.19134 -12.81637,-9.20494 -4.32689,-3.01361 -8.69816,-5.97721 -13.08244,-8.9047 -8.76857,-5.855 -17.58954,-11.56682 -26.21491,-17.24675 -4.31269,-2.83996 -8.57654,-5.67195 -12.76024,-8.51048 -4.183686,-2.83853 -8.288005,-5.683 -12.280562,-8.54831 0,0 -0.261289,-0.24397 -0.63588,-0.47478 -0.37459,-0.23079 -0.861474,-0.44901 -1.314468,-0.39665 -0.226497,0.0262 -0.44531,0.12032 -0.635879,0.31365 -0.190559,0.19334 -0.353512,0.48577 -0.471101,0.9105 -0.1176,0.42472 -0.188882,0.98222 -0.196503,1.70258 -0.0074,0.72037 0.04861,1.60361 0.187948,2.68386 1.042725,4.4938 1.818005,7.83209 2.505669,10.56701 0.687663,2.73491 1.28804,4.86648 1.979641,6.94702 0.691591,2.08055 1.474332,4.11001 2.52886,6.6407 1.054516,2.53068 2.380543,5.56264 4.156984,9.64797 -0.05286,0.3683 -0.210364,0.6857 -0.434494,0.96907 -0.224141,0.28338 -0.515201,0.533 -0.834812,0.76891 -0.639244,0.47182 -1.393743,0.88575 -1.960112,1.39258 -1.099424,0.98411 -2.388387,1.9631 -3.61387,2.92551 -1.225483,0.96241 -2.3874,1.90937 -3.23186,2.8291 -1.01064,0.89315 -3.036302,2.60456 -5.509291,4.87586 -1.2365,1.13565 -2.584762,2.41161 -3.973919,3.7945 -1.389157,1.38291 -2.819358,2.87242 -4.219235,4.43771 -1.399887,1.5653 -2.76873,3.20645 -4.037389,4.88929 -1.268638,1.68283 -2.436531,3.40763 -3.432014,5.14314 -0.995483,1.73551 -1.81913,3.48083 -2.399489,5.20416 -0.290168,0.86168 -0.520023,1.71779 -0.679805,2.56426 -0.159783,0.84646 -0.249539,1.68374 -0.261188,2.50688 -0.209107,3.6237 -0.435381,6.498 -0.705439,8.87175 -0.270059,2.37375 -0.583343,4.2466 -0.966632,5.8669 -0.383291,1.62031 -0.836461,2.98769 -1.385261,4.35105 -0.548789,1.36334 -1.193518,2.72254 -1.960098,4.32541 -0.766627,1.60318 -1.672884,2.89301 -2.548388,4.06913 -0.875504,1.17611 -1.720672,2.23941 -2.365312,3.38929 -0.322323,0.57495 -0.593634,1.17133 -0.794541,1.81487 -0.200906,0.64355 -0.331565,1.33334 -0.368591,2.09559 -0.037,0.76223 0.01861,1.59658 0.187958,2.52763 0.169326,0.93104 0.453286,1.95863 0.871432,3.10859 0.418146,1.14995 1.031289,2.2486 1.803889,3.29288 0.772591,1.04428 1.703963,2.03423 2.75586,2.97068 1.051908,0.93644 2.224771,1.81836 3.480844,2.6448 1.256074,0.82644 2.596121,1.59733 3.981234,2.31161 1.385114,0.71427 2.815622,1.37236 4.254632,1.97231 1.439009,0.59995 2.885672,1.14224 4.303454,1.62569 2.835554,0.9669 5.55407,1.69919 7.853854,2.18712 1.149913,0.24396 2.148707,0.36974 3.068313,0.39788 0.919605,0.0281 1.759449,-0.0416 2.589878,-0.18795 1.660858,-0.29274 3.285024,-0.89372 5.436067,-1.63667 1.075521,-0.37149 2.282207,-0.77889 3.691986,-1.20097 1.409769,-0.42208 3.02241,-0.85868 4.90759,-1.29007 1.88518,-0.43137 4.04377,-0.85649 6.5455,-1.25588 2.50171,-0.39938 5.34625,-0.77237 8.60567,-1.09844 12.5444,-1.25407 18.493,-1.74875 21.57339,-1.90397 1.54018,-0.0776 2.36317,-0.0705 2.93527,-0.0317 0.57212,0.0387 0.89323,0.11026 1.4292,0.15988 1.099,0.10041 2.21674,0.33387 3.32828,0.68715 1.11153,0.35326 2.21758,0.82571 3.2941,1.40356 1.07653,0.57784 2.12317,1.26164 3.11714,2.03577 0.99395,0.77414 1.93474,1.6392 2.79858,2.58134 0.86383,0.94215 1.65107,1.96083 2.33723,3.04269 0.68617,1.08186 1.27094,2.22652 1.73189,3.41981 0.46093,1.19329 0.798,2.43507 0.98615,3.71151 0.18816,1.27644 0.22737,2.58768 0.0952,3.919 0,0 -0.70745,-0.1083 -2.01747,-0.21482 -1.31002,-0.1065 -3.22254,-0.21158 -5.63256,-0.20626 -2.41003,0.005 -5.31666,0.12096 -8.61667,0.45647 -1.65,0.16775 -3.39912,0.39101 -5.23224,0.68225 -1.83311,0.29124 -3.7512,0.65033 -5.74119,1.09237 -1.98998,0.44195 -4.05142,0.96648 -6.17202,1.58664 -2.12059,0.61998 -4.29978,1.33588 -6.52474,2.16138 -2.22495,0.8255 -4.49507,1.7601 -6.79814,2.8181 -2.30305,1.0581 -4.6397,2.2397 -6.99463,3.5578 -2.35491,1.318 -4.72883,2.7726 -7.109351,4.3779 -2.380511,1.6052 -4.767327,3.3612 -7.147191,5.281 -2.379864,1.9199 -4.752734,4.0044 -7.105692,6.266 -0.728898,0.7006 -1.439265,1.5362 -2.163938,2.2713 a 98.607026,98.607026 0 0 0 39.282722,8.2116 98.607026,98.607026 0 0 0 97.49276,-84.65081 z" id="path4234" inkscape:connector-curvature="0" />
        <path style="color:#000000;clip-rule:nonzero;display:inline;overflow:visible;visibility:visible;opacity:0.9;isolation:auto;mix-blend-mode:normal;color-interpolation:sRGB;color-interpolation-filters:linearRGB;solid-color:#000000;solid-opacity:1;fill:#ffffff;fill-opacity:1;fill-rule:nonzero;stroke:#ffffff;stroke-width:0.65663;stroke-linecap:round;stroke-linejoin:round;stroke-miterlimit:4;stroke-dasharray:none;stroke-dashoffset:0;stroke-opacity:1;color-rendering:auto;image-rendering:auto;shape-rendering:auto;text-rendering:auto;enable-background:accumulate" d="m 119.08185,825.00451 a 98.607026,98.607026 0 0 0 -98.607083,98.60709 98.607026,98.607026 0 0 0 59.324377,90.3956 c 0.724673,-0.7351 1.43504,-1.5707 2.163938,-2.2713 2.352958,-2.2617 4.725828,-4.3462 7.105692,-6.266 2.379864,-1.9199 4.766669,-3.6758 7.147191,-5.2811 2.380512,-1.60524 4.754445,-3.05983 7.109355,-4.37787 2.35491,-1.31806 4.69157,-2.49963 6.99463,-3.55774 2.30306,-1.0581 4.57318,-1.99266 6.79814,-2.81811 2.22495,-0.82544 4.40415,-1.5414 6.52474,-2.16149 2.1206,-0.62009 4.18203,-1.14462 6.17202,-1.58662 1.98998,-0.44202 3.90807,-0.80112 5.74119,-1.09236 1.83311,-0.29123 3.58223,-0.5145 5.23223,-0.68225 3.3,-0.3355 6.20665,-0.45114 8.61667,-0.45646 2.41002,-0.005 4.32254,0.0998 5.63256,0.20626 1.31002,0.10651 2.01746,0.2148 2.01746,0.2148 0.13218,-1.3313 0.093,-2.64254 -0.0952,-3.91899 -0.18815,-1.27644 -0.52522,-2.51822 -0.98615,-3.71151 -0.46094,-1.19329 -1.04572,-2.33796 -1.73188,-3.41981 -0.68616,-1.08186 -1.4734,-2.10055 -2.33724,-3.04268 -0.86383,-0.94214 -1.80462,-1.8072 -2.79859,-2.58134 -0.99395,-0.77413 -2.0406,-1.45793 -3.11712,-2.03578 -1.07653,-0.57785 -2.18257,-1.05029 -3.2941,-1.40357 -1.11155,-0.35326 -2.22928,-0.58671 -3.32829,-0.68713 -0.53597,-0.0496 -0.85708,-0.12109 -1.42919,-0.15988 -0.57211,-0.0389 -1.39509,-0.0459 -2.93528,0.0317 -3.08038,0.1552 -9.02899,0.64989 -21.57339,1.90397 -3.25941,0.32606 -6.10395,0.69906 -8.60568,1.09843 -2.50173,0.39939 -4.66031,0.82451 -6.545486,1.25588 -1.885179,0.43139 -3.497819,0.86798 -4.907598,1.29007 -1.40978,0.42208 -2.616455,0.82947 -3.691976,1.20096 -2.151043,0.74296 -3.775209,1.34394 -5.436067,1.63667 -0.830429,0.14637 -1.670283,0.21611 -2.589878,0.18796 -0.919606,-0.0281 -1.918411,-0.15392 -3.068324,-0.39787 -2.299783,-0.48794 -5.0183,-1.22023 -7.853854,-2.18712 -1.417771,-0.48346 -2.864434,-1.02576 -4.303443,-1.6257 -1.43901,-0.59994 -2.869518,-1.25804 -4.254631,-1.97232 -1.385115,-0.71427 -2.725164,-1.48516 -3.981238,-2.3116 -1.256073,-0.82644 -2.428936,-1.70836 -3.480844,-2.64481 -1.051897,-0.93644 -1.98327,-1.92639 -2.75586,-2.97066 -0.7726,-1.04429 -1.385743,-2.14294 -1.803889,-3.29289 -0.418147,-1.14996 -0.702106,-2.17755 -0.871432,-3.10858 -0.16933,-0.93105 -0.224979,-1.76541 -0.187958,-2.52764 0.03704,-0.76225 0.167684,-1.45205 0.368591,-2.09559 0.200907,-0.64354 0.472218,-1.23993 0.79454,-1.81487 0.64464,-1.14988 1.489809,-2.21319 2.365313,-3.3893 0.875503,-1.17611 1.781765,-2.46594 2.548388,-4.06911 0.766578,-1.60289 1.411307,-2.96207 1.960098,-4.32542 0.5488,-1.36335 1.00197,-2.73074 1.385261,-4.35105 0.383289,-1.6203 0.696573,-3.49315 0.966631,-5.8669 0.270059,-2.37374 0.496333,-5.24806 0.70544,-8.87174 0.01163,-0.82315 0.101404,-1.66043 0.261187,-2.50689 0.159783,-0.84646 0.389635,-1.70258 0.679811,-2.56425 0.580355,-1.72333 1.404004,-3.46866 2.399487,-5.20418 0.995483,-1.7355 2.163365,-3.46031 3.432014,-5.14313 1.268649,-1.68284 2.637502,-3.32399 4.037379,-4.88929 1.399887,-1.5653 2.830088,-3.05481 4.219234,-4.4377 1.389168,-1.38291 2.73743,-2.65886 3.97393,-3.79451 2.472989,-2.2713 4.498651,-3.98271 5.509291,-4.87586 0.84446,-0.91972 2.006377,-1.86669 3.23186,-2.82909 1.225472,-0.96241 2.514446,-1.94141 3.61387,-2.92552 0.56637,-0.50682 1.320868,-0.92076 1.960101,-1.39258 0.319622,-0.23591 0.610683,-0.48554 0.834813,-0.7689 0.22414,-0.28339 0.381648,-0.60078 0.434505,-0.96908 -1.776431,-4.08533 -3.102468,-7.11729 -4.156996,-9.64798 -1.054517,-2.53067 -1.837258,-4.56014 -2.528849,-6.64068 -0.691601,-2.08055 -1.291978,-4.21212 -1.979641,-6.94704 -0.687664,-2.7349 -1.462944,-6.07321 -2.505669,-10.567 -0.139379,-1.08025 -0.195568,-1.96349 -0.187948,-2.68386 0.0074,-0.72036 0.07886,-1.27785 0.196492,-1.70258 0.1176,-0.42473 0.280553,-0.71716 0.471112,-0.91049 0.190559,-0.19333 0.409382,-0.28749 0.635869,-0.31367 0.453004,-0.0523 0.939888,0.16587 1.314479,0.39666 0.374579,0.23081 0.635868,0.47477 0.635868,0.47477 3.992568,2.86532 8.096887,5.70979 12.280576,8.54833 4.183701,2.83852 8.447541,5.67051 12.760231,8.51047 8.62537,5.67993 17.44635,11.39175 26.21491,17.24675 4.38428,2.9275 8.75556,5.8911 13.08244,8.9047 4.32688,3.0136 8.60903,6.07701 12.81637,9.20494 4.20735,3.12793 8.34032,6.32012 12.36601,9.59061 4.02568,3.27048 7.94458,6.61924 11.72647,10.0605 3.78189,3.44126 7.42668,6.97435 10.90263,10.61461 1.73799,1.82013 3.4335,3.66707 5.08335,5.54224 1.64985,1.87517 3.25356,3.77938 4.80751,5.71311 1.55395,1.93375 3.05821,3.89792 4.50849,5.89376 1.1638,1.60158 2.26626,3.23834 3.35879,4.88196 a 98.607026,98.607026 0 0 0 1.11431,-13.9563 98.607026,98.607026 0 0 0 -98.60708,-98.6071 z" id="path4204" inkscape:connector-curvature="0" />
      </g>
    </g>
  </g>
</svg>
